PathFileType	4	(X/Y/Z)	1H_rest_med_right.trc
DataRate	CameraRate	NumFrames	NumMarkers	Units	OrigDataRate	OrigDataStartFrame	OrigNumFrames
250.00	250.00	12	18	mm	250.00	7321	29281
Frame#	Time	c7	r_should	l_should	clavicle	r_upa	r_elb_l	r_elb_m	r_low	r_wri_l	r_wri_m	r_met	l_upa	l_elb_l	l_elb_m	l_low	l_wri_l	l_wri_m	l_met
	X1	Y1	Z1	X2	Y2	Z2	X3	Y3	Z3	X4	Y4	Z4	X5	Y5	Z5	X6	Y6	Z6	X7	Y7	Z7	X8	Y8	Z8	X9	Y9	Z9	X10	Y10	Z10	X11	Y11	Z11	X12	Y12	Z12	X13	Y13	Z13	X14	Y14	Z14	X15	Y15	Z15	X16	Y16	Z16	X17	Y17	Z17	X18	Y18	Z18
7321	29.28000	631.33398	1419.52966	274.30884	694.59827	1355.62708	414.98834	666.37372	1374.72205	97.89788	756.46155	1277.89307	246.07164	716.69550	1144.12463	464.43475	725.61414	1052.28137	479.72382	687.34332	1015.99835	397.48645	763.80719	864.62537	482.75800	784.76782	794.43896	464.40521	712.51166	781.59131	477.30145	807.11652	726.45996	513.97852	654.52271	1185.78174	19.88602	667.10132	1077.71558	7.81597	613.97797	1041.10742	70.93935	704.13483	912.55023	10.52467	732.15784	839.64758	45.20206	668.27991	819.96643	15.39998	762.12585	753.95483	16.96997
7322	29.28400	631.32587	1419.54578	274.29343	694.60498	1355.64392	414.98416	666.36530	1374.72412	97.89487	756.45929	1277.89880	246.06836	716.67841	1144.11804	464.39969	725.58215	1052.26880	479.68185	687.29657	1015.98120	397.45270	763.77838	864.63391	482.74603	784.73035	794.44189	464.38931	712.46588	781.59015	477.24991	807.07074	726.48285	513.97614	654.47546	1185.76086	19.86462	667.06982	1077.72107	7.81504	613.91132	1041.08276	70.91266	704.08600	912.54602	10.53194	732.07996	839.62958	45.19168	668.19708	819.94293	15.38036	762.06232	753.94354	16.98097
7323	29.28800	631.31525	1419.55603	274.28613	694.61469	1355.65515	414.98035	666.35443	1374.71558	97.89980	756.45386	1277.90662	246.05966	716.65588	1144.10657	464.36725	725.54242	1052.24341	479.64200	687.24274	1015.95233	397.41629	763.74902	864.63879	482.73071	784.69751	794.44800	464.37173	712.41461	781.57874	477.19354	807.00671	726.45758	513.93805	654.42444	1185.71143	19.87190	667.03821	1077.71887	7.82348	613.82776	1041.05566	70.88655	704.03040	912.53613	10.54504	731.99854	839.59888	45.18291	668.10297	819.91003	15.36396	761.99518	753.92920	16.99734
7324	29.29200	631.29974	1419.56372	274.26987	694.61414	1355.66394	414.97415	666.33856	1374.70190	97.90141	756.45038	1277.91394	246.05861	716.64001	1144.09961	464.34637	725.50714	1052.22961	479.62201	687.19727	1015.92957	397.39828	763.71417	864.64288	482.72147	784.66418	794.45520	464.36014	712.36407	781.56921	477.15872	806.94507	726.43408	513.90485	654.37000	1185.65967	19.88367	667.00763	1077.71375	7.83093	613.76233	1041.02527	70.87733	703.97662	912.52045	10.55440	731.92694	839.56848	45.19001	668.01715	819.87738	15.36531	761.92743	753.91235	17.02183
7325	29.29600	631.28210	1419.56067	274.25220	694.60596	1355.66492	414.96558	666.32019	1374.69702	97.89986	756.44775	1277.92322	246.05653	716.63568	1144.10706	464.33826	725.48663	1052.23901	479.61819	687.18524	1015.92944	397.39240	763.67517	864.64563	482.71472	784.62653	794.45789	464.35513	712.31445	781.56836	477.15884	806.90100	726.42694	513.88586	654.35034	1185.66003	19.89055	666.97076	1077.70813	7.83272	613.72626	1041.01440	70.89024	703.92328	912.50671	10.56404	731.87158	839.55548	45.20411	667.95117	819.85773	15.38525	761.85449	753.89203	17.03995
7326	29.30000	631.26495	1419.55493	274.24490	694.59534	1355.67285	414.96014	666.29877	1374.68835	97.89426	756.43994	1277.93115	246.04623	716.64398	1144.12268	464.33878	725.47858	1052.26379	479.63177	687.18195	1015.96393	397.41229	763.63660	864.64581	482.70724	784.58429	794.45898	464.34369	712.26953	781.58563	477.19553	806.87708	726.44366	513.88849	654.35803	1185.69495	19.88830	666.93335	1077.69275	7.83780	613.70770	1041.03503	70.92094	703.86499	912.49420	10.57484	731.82080	839.55115	45.22794	667.90106	819.86078	15.42400	761.77917	753.86823	17.05741
7327	29.30400	631.24500	1419.55090	274.25357	694.57159	1355.67603	414.95990	666.27374	1374.67688	97.88438	756.42029	1277.93005	246.03952	716.64734	1144.14905	464.35272	725.47150	1052.29553	479.65692	687.18695	1016.00958	397.43359	763.58917	864.64026	482.70630	784.53479	794.45947	464.33496	712.23187	781.60980	477.25076	806.84326	726.46082	513.88922	654.36267	1185.72021	19.89255	666.88916	1077.68262	7.83979	613.69672	1041.07043	70.95863	703.79816	912.47595	10.58251	731.77118	839.54834	45.26174	667.86401	819.87732	15.47147	761.70020	753.84296	17.07608
7328	29.30800	631.22595	1419.54468	274.26096	694.54889	1355.67676	414.95447	666.24493	1374.67566	97.88316	756.39276	1277.92651	246.03633	716.63208	1144.17163	464.36530	725.45703	1052.32288	479.67697	687.16180	1016.05151	397.46042	763.53717	864.63477	482.71292	784.47687	794.45490	464.33612	712.19611	781.63129	477.28983	806.80426	726.47430	513.88397	654.35126	1185.73462	19.90184	666.83673	1077.66895	7.84173	613.67523	1041.09900	70.98278	703.72894	912.45520	10.58917	731.71100	839.54315	45.29414	667.82355	819.89111	15.49942	761.61780	753.81744	17.08574
7329	29.31200	631.21051	1419.54663	274.26242	694.53021	1355.68787	414.94592	666.21765	1374.68152	97.88113	756.37048	1277.92932	246.03731	716.61090	1144.17700	464.36713	725.42896	1052.33813	479.68323	687.11041	1016.07849	397.47314	763.48840	864.63428	482.72153	784.42078	794.45575	464.33636	712.15955	781.63971	477.29880	806.72290	726.36462	513.76294	654.32001	1185.74622	19.89535	666.79163	1077.66028	7.84403	613.62506	1041.11438	70.98997	703.66333	912.44159	10.60058	731.64319	839.53497	45.31098	667.76654	819.88849	15.49868	761.54028	753.79822	17.09689
7330	29.31600	631.19519	1419.55103	274.25586	694.52008	1355.70154	414.94431	666.19122	1374.68311	97.87778	756.35547	1277.94128	246.03320	716.58301	1144.16931	464.35562	725.38861	1052.33362	479.67270	687.06165	1016.07349	397.46130	763.45239	864.64331	482.72931	784.37543	794.46179	464.33826	712.12280	781.63361	477.27472	806.61835	726.20917	513.59894	654.27094	1185.73682	19.88888	666.76019	1077.65515	7.84631	613.55951	1041.10266	70.98174	703.60303	912.43677	10.60784	731.56531	839.51630	45.30758	667.69287	819.87054	15.47906	761.46588	753.78583	17.10723
7331	29.32000	631.18469	1419.55396	274.24023	694.51471	1355.71228	414.93784	666.16846	1374.67957	97.87426	756.34717	1277.95386	246.02490	716.55353	1144.15637	464.33444	725.34515	1052.31409	479.64877	687.00201	1016.04590	397.43988	763.42303	864.65472	482.73096	784.33594	794.47351	464.34146	712.08002	781.61719	477.23206	806.59924	726.35352	513.72961	654.20569	1185.69275	19.88842	666.73083	1077.64209	7.85568	613.48132	1041.07166	70.96127	703.55298	912.42902	10.61424	731.48450	839.49036	45.29526	667.60535	819.84113	15.45173	761.39594	753.77106	17.11513
7332	29.32400	631.17059	1419.55945	274.22891	694.51166	1355.71814	414.93063	666.14404	1374.67078	97.87215	756.34369	1277.96118	246.01813	716.52533	1144.14453	464.31180	725.30908	1052.29761	479.62616	686.94366	1016.01520	397.41867	763.39850	864.65515	482.72406	784.30261	794.48309	464.33459	712.03064	781.60394	477.19675	806.51440	726.25354	513.62915	654.11853	1185.62500	19.89004	666.69879	1077.63306	7.85631	613.41620	1041.02869	70.92978	703.50250	912.41656	10.62127	731.41089	839.45941	45.28429	667.51434	819.81152	15.43583	761.33093	753.75562	17.11932
